<svg width="512" height="233" viewBox="0 0 512 233" fill="none" xmlns="http://www.w3.org/2000/svg">
<g clip-path="url(#clip0_229_197)">
<g clip-path="url(#clip1_229_197)">
<path d="M0 114.67H35.3524V80.5131H49.981C49.981 80.5131 49.8955 103.51 49.981 114.67C61.7651 114.67 85.3333 114.67 85.3333 114.67V15.8586H49.981V48.7958H35.3524V0H0V114.67ZM138.971 15.8586C138.971 15.8586 138.971 58.9386 138.971 75.6335C138.971 80.5131 136.559 82.9529 131.657 82.9529C126.781 82.9529 124.343 80.5131 124.343 75.6335C124.343 55.9915 124.343 15.8586 124.343 15.8586H88.9143C88.9143 15.8586 88.9905 49.6841 88.9905 75.6335C88.9905 101.367 102.579 114.67 131.657 114.67C160.914 114.67 174.324 100.031 174.324 75.6335C174.324 59.1729 174.324 15.8586 174.324 15.8586H138.971ZM423.01 114.67H458.362V87.8325L471.771 114.67H511.703L488.656 74.4136C498.819 70.1059 502.248 64.6544 502.248 49.4508C502.248 25.6178 492.495 15.8586 468.715 15.8586H423.01V114.67ZM264.533 15.8205V46.356H285.257L285.219 114.67H319.391V46.356H343.772V15.8586L264.533 15.8205H264.533ZM347.429 15.8205V114.67H419.352V84.1728H382.781V79.2932H415.695V51.2356H382.781V46.356H419.352V15.8586L347.429 15.8205ZM177.981 114.67H210.857L210.895 86.3648L227.218 114.67H260.876V15.8586H228L227.962 46.7801L213.737 15.8586H177.981V114.67ZM465.023 47.5759C466.396 47.5759 466.895 48.0937 466.895 49.3957C466.895 50.6978 466.327 51.2356 465.12 51.2356C462.874 51.2356 457.714 51.2356 457.714 51.2356L457.743 47.5759H465.023ZM210.895 118.33H177.981V217.141H213.858L227.962 186.301V217.141H260.876V118.33H227.368L210.895 146.583V118.33ZM423.01 118.33V217.141C423.01 217.141 446.594 217.141 468.705 217.141C493.714 217.141 502.248 207.382 502.248 183.557C502.248 168.346 498.088 162.529 488.676 158.586L511.657 118.33H471.771L458.362 145.168V118.33H423.01ZM347.429 118.292V217.141H419.352V186.644H382.781V181.764H415.695V153.707H382.781L382.781 148.827H419.352V118.33L347.429 118.292H347.429ZM0 233H35.3524V184.204H49.981V217.141H85.3333V118.33H49.981V152.487H35.3524V118.33H0V233ZM88.9905 157.366C88.9905 176.347 88.9905 217.141 88.9905 217.141H124.343C124.343 217.141 124.343 175.665 124.343 157.366C124.343 152.487 126.228 150.047 131.657 150.047C137.087 150.047 138.971 153.04 138.971 157.366C138.971 172.323 138.971 217.141 138.971 217.141H174.324C174.324 217.141 174.324 183.316 174.324 157.366C174.324 132.417 159.118 118.33 131.657 118.33C104.196 118.33 88.9905 132.399 88.9905 157.366ZM285.257 186.644H264.533V217.141H343.771V186.644H319.39V118.33H285.257C285.257 118.33 285.105 163.873 285.257 186.644ZM465.676 183.505C465.676 184.841 465.264 185.424 463.771 185.424H457.756L457.829 181.764H463.796C464.933 181.764 465.676 182.167 465.676 183.505H465.676Z" fill="white"/>
<path d="M7.31427 7.31937V107.351H28.0381V73.1937H57.2952V107.351H78.019V23.178H57.2952V56.1152H28.0381V7.31937H7.31427Z" fill="#54A12F" fill-opacity="0.941176"/>
<path d="M451.048 125.649H430.324V209.822C430.324 209.822 453.675 209.822 468.71 209.822C486.4 209.822 494.933 201.283 494.933 183.616C494.933 166.088 483.962 164.686 477.867 162.847L499.809 125.649H476.648L459.581 158.586H451.048V125.649ZM7.31427 225.681H28.0381V176.885H57.2952V209.822H78.019V125.649H57.2952V159.806H28.0381V125.649H7.31427V225.681ZM131.657 125.649C107.276 125.649 96.3047 136.628 96.3047 161.026V209.822H117.029C117.029 209.822 117.029 174.852 117.029 157.367C117.029 147.607 121.831 142.728 131.657 142.728C141.41 142.728 146.286 147.607 146.286 157.367C146.286 174.852 146.286 209.822 146.286 209.822H167.009V161.026C167.009 136.628 155.671 125.649 131.657 125.649ZM185.295 125.649V209.822H208.457L226.743 172.005H235.276V209.822H253.562V125.649H231.619L212.114 158.586H203.581V125.649H185.295ZM354.743 125.649V209.822H412.038V193.963H375.467V174.445H408.381V161.026H375.467V141.508H412.038V125.649H354.743ZM292.571 125.649V193.963H271.848V209.822H336.457V193.963H312.076V125.649H292.571ZM466.252 174.445C472.348 174.445 475.429 177.576 475.429 183.623C475.429 189.671 472.516 192.743 466.221 192.743H451.048V174.445C451.048 174.445 461.376 174.445 466.252 174.445Z" fill="#138525"/>
<path d="M354.743 23.178V107.351H412.038V91.4921H375.467V71.9738H408.381V58.555H375.467V39.0366H412.038V23.178H354.743ZM96.3047 71.9738C96.3047 96.3717 107.167 107.351 131.657 107.351C156.038 107.351 167.01 96.3717 167.01 71.9738V23.178H146.286C146.286 23.178 146.286 58.555 146.286 75.6335C146.286 85.3927 141.41 90.2722 131.657 90.2722C122.066 90.2722 117.029 85.3927 117.029 75.6335V23.178H96.3047C96.3047 23.178 96.3047 47.4479 96.3047 71.9738ZM185.295 107.351H203.581V74.4136H212.114L231.619 107.351H253.562V23.178H235.276V60.9948H226.743L208.457 23.178H185.295V107.351ZM271.848 39.0366H292.571V107.351H312.076V39.0366H336.457V23.178H271.848V39.0366ZM430.324 23.178V107.351H451.048V74.4136H459.581L476.648 107.351H501.029L477.867 70.1575C483.962 68.3141 494.933 67.0942 494.933 49.439C494.933 31.7173 487.619 23.178 468.726 23.178H430.324ZM466.245 40.2565C472.316 40.2565 475.429 43.2278 475.429 49.3725C475.429 55.5484 472.472 58.555 466.303 58.555C463.865 58.555 451.048 58.555 451.048 58.555V40.2565C451.048 40.2565 461.369 40.2565 466.245 40.2565Z" fill="#ABCC12"/>
<path d="M4.87619 107.351L0 112.23V2.43979L4.87619 7.31937V107.351ZM7.31429 109.791L2.4381 114.67H32.9143L28.0381 109.791H7.31429ZM30.5301 107.208L35.3524 112.23V82.9529L30.4762 78.0733L30.5301 107.208ZM32.9143 75.6335L37.7905 80.5131H47.5429L52.419 75.6335H32.9143ZM54.8571 78.0733L49.981 82.9529V112.23L54.8571 107.351V78.0733ZM57.2952 109.791L52.419 114.67H82.8952L78.0191 109.791H57.2952ZM80.4571 107.351L85.3333 112.23V18.2984L80.4571 23.178V107.351ZM82.8952 15.8586L78.0191 20.7382H57.2952L52.419 15.8586H82.8952ZM54.8571 23.178L49.981 18.2984V46.356L54.8571 51.2356V23.178ZM52.419 53.6754L47.5429 48.7958H37.7905L32.9143 53.6754H52.419ZM30.4762 51.2356L35.3524 46.356V2.43979L30.4762 7.31937V51.2356ZM28.0381 4.87958L32.9143 0H2.4381L7.31429 4.87958H28.0381ZM28.0381 123.209H7.31429L2.4381 118.33H32.9143L28.0381 123.209ZM4.87619 125.649L0 120.77V230.56L4.87619 225.681V125.649ZM7.31429 228.12L2.4381 233H32.9143L28.0381 228.12H7.31429ZM35.3524 230.56L30.4762 225.681V181.764L35.3524 186.644V230.56ZM37.7905 184.204H47.5429L52.419 179.325H32.9143L37.7905 184.204ZM54.8571 181.764L49.981 186.644V214.702L54.8571 209.822V181.764ZM52.419 217.141H82.8952L78.0191 212.262H57.2952L52.419 217.141ZM80.4571 209.822L85.3333 214.702V120.77L80.4571 125.649V209.822ZM78.0191 123.209L82.8952 118.33H52.419L57.2952 123.209H78.0191ZM54.8571 125.649L49.981 120.77V150.047L54.8571 154.927V125.649ZM52.419 157.366H32.9143L37.7905 152.487H47.5429L52.419 157.366ZM30.4762 154.927L35.3524 150.047V120.77L30.4762 125.649V154.927ZM88.9905 18.2984V71.9738H93.8667V23.178L88.9905 18.2984ZM88.9905 75.6335C88.9905 101.251 102.4 114.67 131.657 114.67C160.887 114.67 174.324 100.031 174.324 75.6335H169.448C169.448 97.5916 157.182 109.791 131.657 109.791C106.057 109.791 93.8667 97.5916 93.8667 75.6335H88.9905ZM169.448 71.9738H174.324V18.2984L169.448 23.178V71.9738ZM167.01 20.7382L171.886 15.8586H141.41L146.286 20.7382H167.01ZM143.848 23.178L138.971 18.2984C138.971 18.2984 138.971 73.1937 138.971 75.6335C138.971 80.5131 136.533 82.9529 131.657 82.9529C127.059 82.9529 124.343 80.5131 124.343 75.6335C124.343 71.9738 124.343 18.2984 124.343 18.2984L119.467 23.178C119.467 23.178 119.467 70.7539 119.467 75.6335C119.467 82.9529 123.124 87.8325 131.657 87.8325C139.922 87.8325 143.848 82.9529 143.848 75.6335C143.848 69.534 143.848 23.178 143.848 23.178ZM117.029 20.7382L121.905 15.8586H91.4286L96.3048 20.7382H117.029ZM88.9905 214.702L93.8667 209.822V161.026L89.0452 160.979L88.9905 214.702ZM96.3048 212.262L91.4286 217.141H121.905L117.029 212.262H96.3048ZM124.343 214.702C124.343 214.702 124.343 158.586 124.343 157.366C124.343 152.487 126.449 150.047 131.657 150.047C136.533 150.047 138.971 152.487 138.971 157.366C138.971 159.032 138.971 214.702 138.971 214.702L143.848 209.822C143.848 209.822 143.848 159.806 143.848 157.366C143.848 150.047 140.075 145.168 131.657 145.168C123.124 145.168 119.467 150.047 119.467 157.366C119.467 162.246 119.467 209.822 119.467 209.822L124.343 214.702ZM141.41 217.141H171.886L167.01 212.262H146.286L141.41 217.141ZM174.324 214.702V161.026H169.448V209.822L174.324 214.702ZM174.324 157.366H169.448C169.448 135.408 156.861 123.209 131.657 123.209C106.057 123.209 93.8667 135.408 93.8667 157.366H88.9905C88.9905 132.969 103.619 118.33 131.657 118.33C159.562 118.33 174.324 132.969 174.324 157.366ZM182.857 23.178V107.351L177.981 112.23V18.2984L182.857 23.178ZM180.419 114.67H210.895V93.9319L206.019 85.3927V109.791H185.295L180.419 114.67ZM206.019 76.8534V78.0733L227.448 114.67H260.876V18.2984L256 23.178V109.791H230.4L210.895 76.8534H206.019ZM258.438 15.8586L253.562 20.7382H235.276L230.4 15.8586H258.438ZM227.962 18.2984V40.2565L232.838 50.0157V23.178L227.962 18.2984ZM232.838 58.555V57.3351L215.144 18.8637L211.456 22.6169L227.962 58.555H232.838ZM208.457 20.7382L213.333 15.8586H180.419L185.295 20.7382H208.457ZM182.857 125.649L177.981 120.77V214.702L182.857 209.822V125.649ZM180.419 217.141H213.333L208.457 212.262H185.295L180.419 217.141ZM211.331 210.445L215.238 214.167L232.838 175.665V174.445H227.962L211.331 210.445ZM232.838 182.984L227.962 193.963V214.702L232.838 209.822V182.984ZM230.4 217.141H258.438L253.562 212.262H235.276L230.4 217.141ZM256 209.822L260.876 214.702V118.33H227.318L206.019 154.927V156.147H210.895L230.4 123.209H256V209.822ZM206.019 147.607L210.895 139.068V118.33H180.419L185.295 123.209H206.019V147.607ZM264.533 18.2984V43.9162L269.41 39.0366V23.178L264.533 18.2984ZM271.848 41.4764L266.971 46.356H282.819L287.695 41.4764H271.848ZM285.257 48.7958V114.67H319.39V48.7958L314.514 43.9162V109.791H290.133V43.9162L285.257 48.7958ZM316.952 41.4764L321.829 46.356H341.333L336.457 41.4764H316.952ZM343.771 43.9162V18.2984L338.895 23.178V39.0366L343.771 43.9162ZM336.457 20.7382L341.333 15.8586H266.971L271.848 20.7382H336.457ZM264.533 189.084V214.702L269.41 209.822V193.963L264.533 189.084ZM266.971 217.141H341.333L336.457 212.262H271.848L266.971 217.141ZM338.895 209.822L343.771 214.702V189.084L338.895 193.963V209.822ZM341.333 186.644H321.829L316.952 191.524H336.457L341.333 186.644ZM319.39 184.204V118.33H285.257V184.204L290.133 189.084V123.209H314.514V189.084L319.39 184.204ZM282.819 186.644H266.971L271.848 191.524H287.695L282.819 186.644ZM347.429 18.2984V114.67H416.914L412.038 109.791H352.305V23.178L347.429 18.2984ZM419.352 112.23V86.6126L414.476 91.4921V107.351L419.352 112.23ZM412.038 89.0524L416.914 84.1728H385.219L380.343 89.0524H412.038ZM382.781 81.733L377.905 76.8534V86.6126L382.781 81.733ZM385.219 79.2932H413.257L408.381 74.4136H380.343L385.219 79.2932ZM410.819 71.9738L415.695 76.8534V53.6754L410.819 58.555V71.9738ZM413.257 51.2356L408.381 56.1152H380.343L385.219 51.2356H413.257ZM382.781 48.7958L377.905 43.9162V53.6754L382.781 48.7958ZM380.343 41.4764L385.219 46.356H416.914L412.038 41.4764H380.343ZM414.476 39.0366L419.352 43.9162V18.2984L414.476 23.178V39.0366ZM416.914 15.8586L412.038 20.7382H354.743L349.867 15.8586H416.914ZM427.886 23.178V107.351L423.01 112.23V18.2984L427.886 23.178ZM430.324 109.791L425.448 114.67H455.924L451.048 109.791H430.324ZM453.486 107.351L458.362 112.23V95.1518L453.486 85.3927V107.351ZM347.429 214.702L352.305 209.822V123.209H412.038L416.914 118.33H347.429V214.702ZM349.867 217.141H416.914L412.038 212.262H354.743L349.867 217.141ZM414.476 209.822L419.352 214.702V189.084L414.476 193.963V209.822ZM416.914 186.644L412.038 191.524H380.343L385.219 186.644H416.914ZM377.905 189.084L382.781 184.204L377.905 179.325V189.084ZM380.343 176.885L385.219 181.764H413.257L408.381 176.885H380.343ZM410.819 174.445L415.695 179.325V156.147L410.819 161.026V174.445ZM408.381 158.586H380.343L385.219 153.707H413.257L408.381 158.586ZM382.781 151.267L377.905 146.387V156.147L382.781 151.267ZM380.343 143.948L385.219 148.827H416.914L412.038 143.948H380.343ZM419.352 146.387V120.77L414.476 125.649V141.508L419.352 146.387ZM458.362 76.8534H453.486V78.0733L470.552 112.23L474.21 108.571L458.362 76.8534ZM472.99 114.67H508.343L501.029 109.791H476.648L472.99 114.67ZM509.639 111.01L502.248 106.131L482.182 71.9738L490.057 76.8534L509.639 111.01ZM485.093 70.7682L491.276 73.1937C498.59 69.534 502.248 64.6544 502.248 49.4121C502.248 25.6178 492.495 15.8586 468.691 15.8586H425.448L430.324 20.7382H468.722C488.838 20.7382 497.371 29.2775 497.371 49.4342C497.371 62.2147 494.933 67.0942 485.093 70.7682ZM453.486 53.6754L457.739 49.4192L453.486 45.1361V53.6754ZM455.924 56.1152H465.676C470.552 56.1152 472.99 53.5818 472.99 49.4782C472.99 45.1361 470.552 42.6963 465.676 42.6963H455.924L460.8 47.5759C460.8 47.5759 463.625 47.5759 465.037 47.5759C466.332 47.5759 466.895 48.1799 466.895 49.4121C466.895 50.6595 466.286 51.2356 465.012 51.2356H460.8L455.924 56.1152ZM423.01 120.77V214.702L427.886 209.822V125.649L423.01 120.77ZM425.448 217.141H468.79C493.714 217.141 502.248 207.382 502.248 183.551C502.248 169.565 498.59 163.466 491.276 159.806L485.181 162.246C494.933 165.906 497.371 172.005 497.371 183.595C497.371 204.942 490.057 212.262 468.702 212.262H430.324L425.448 217.141ZM482.06 161.026L490.057 156.147L509.562 121.99L501.029 126.869L482.06 161.026ZM499.81 123.209L508.343 118.33H472.99L476.648 123.209H499.81ZM474.21 124.429L470.552 120.77L453.486 154.927V156.147H458.362L474.21 124.429ZM458.362 137.848V120.77L453.486 125.649V147.607L458.362 137.848ZM455.924 118.33H425.448L430.324 123.209H451.048L455.924 118.33ZM453.486 179.325V187.864L457.781 183.577L453.486 179.325ZM455.879 176.938L466.219 176.885C471.095 176.885 472.99 179.325 472.99 183.546C472.99 187.636 471.184 190.304 466.307 190.304H455.924L460.8 185.424H463.951C465.109 185.424 465.676 184.773 465.676 183.577C465.676 182.383 465.061 181.764 463.774 181.764H460.8L455.879 176.938Z" fill="#304438"/>
<path d="M408.381 104.911H199.924V128.089H408.381V104.911Z" fill="black"/>
<path d="M258.438 86.6125L288.914 115.89L258.438 146.387L274.286 162.246L304.194 132.383L334.019 162.246L349.867 146.387L320.015 116.617L349.867 86.6125L334.019 70.7539L304.197 100.592L274.286 70.7539L258.438 86.6125Z" fill="#FE2016" stroke="black" stroke-width="2"/>
<path d="M207.585 122.945C209.356 120.129 210.696 116.723 211.491 113.388M215.248 112.471C217.946 115.33 219.295 118.788 220.523 122.301M225.216 110.102L228.527 114.105M225.776 122.945C229.425 121.209 233.314 118.219 236.371 114.982M243.22 116.898C244.676 114.644 246.724 112.659 249.905 112.23C252.843 111.834 254.043 114.35 251.969 116.139C249.124 118.595 245.973 120.525 242.466 122.301M256.864 116.96L269.223 116.923" stroke="white" stroke-width="2.5" stroke-linecap="round" stroke-linejoin="round"/>
<path d="M339.55 122.922C341.321 120.106 342.662 116.701 343.457 113.365M347.213 112.449C349.911 115.307 351.261 118.766 352.488 122.278M357.181 110.08L360.492 114.082M357.742 122.922C361.39 121.186 365.279 118.196 368.336 114.959M375.185 116.875C376.641 114.622 378.69 112.636 381.87 112.208C384.809 111.811 386.008 114.327 383.934 116.117C381.089 118.572 377.939 120.502 374.431 122.278M388.829 116.937L401.188 116.9" stroke="white" stroke-width="2.5" stroke-linecap="round" stroke-linejoin="round"/>
</g>
</g>
<defs>
<clipPath id="clip0_229_197">
<rect width="512" height="233" fill="white"/>
</clipPath>
<clipPath id="clip1_229_197">
<rect width="512" height="233" fill="white"/>
</clipPath>
</defs>
</svg>
